<svg width="30" height="30" viewBox="0 0 30 30" version="1.1" xmlns="http://www.w3.org/2000/svg" xmlns:xlink="http://www.w3.org/1999/xlink">
<title>Facebook</title>
<desc>Created using Figma</desc>
<g id="Canvas" transform="translate(156 234)">
<clipPath id="clip-0" clip-rule="evenodd">
<path d="M -156 -234L -126 -234L -126 -204L -156 -204L -156 -234Z" fill="#FFFFFF"/>
</clipPath>
<g id="Facebook" clip-path="url(#clip-0)">
<path d="M -156 -234L -126 -234L -126 -204L -156 -204L -156 -234Z" fill="#FFFFFF"/>
<g id="Facebook icon">
<use xlink:href="#path0_fill" transform="translate(-156 -234)" fill="#292929"/>
</g>
</g>
</g>
<defs>
<path id="path0_fill" d="M 28.244 0L 1.61 0C 1.18413 0.00365571 0.776744 0.174454 0.475599 0.475599C 0.174454 0.776744 0.00365571 1.18413 0 1.61L 1.38778e-16 28.242C 0.00365571 28.6679 0.174454 29.0753 0.475599 29.3764C 0.776744 29.6775 1.18413 29.8483 1.61 29.852L 15.951 29.852L 15.951 18.292L 12 18.292L 12 13.755L 15.951 13.755L 15.951 10.536C 15.951 6.736 18.292 4.536 21.805 4.536C 23.415 4.536 24.878 4.682 25.317 4.682L 25.317 8.782L 22.976 8.782C 21.076 8.782 20.776 9.66 20.776 10.977L 20.776 13.9L 25.313 13.9L 24.728 18.436L 20.78 18.436L 20.78 30L 28.39 30C 28.816 29.9963 29.2236 29.8254 29.5247 29.524C 29.8259 29.2227 29.9966 28.815 30 28.389L 30 1.61C 29.9399 1.17942 29.7318 0.783198 29.4114 0.489396C 29.0909 0.195593 28.6782 0.0225528 28.244 0"/>
</defs>
</svg>
