<svg xmlns="http://www.w3.org/2000/svg" viewBox="1285 796 44.971 45">
  <defs>
    <style>
      .cls-1 {
        fill: #fff;
      }
    </style>
  </defs>
  <g id="Podcast-icon" transform="translate(1285 796)">
    <ellipse id="Ellipse_3" data-name="Ellipse 3" class="cls-1" cx="5.189" cy="5.189" rx="5.189" ry="5.189" transform="translate(17.297 17.297)"/>
    <path id="Path_12" data-name="Path 12" class="cls-1" d="M43.837,30a13.827,13.827,0,0,0-9.484,23.9,10.2,10.2,0,0,1,3.488-4.641,8.217,8.217,0,0,1-2.076-5.42A8.072,8.072,0,1,1,49.8,49.257,10.008,10.008,0,0,1,53.293,53.9,13.827,13.827,0,0,0,43.837,30Z" transform="translate(-21.352 -21.352)"/>
    <path id="Path_13" data-name="Path 13" class="cls-1" d="M22.486,0A22.484,22.484,0,0,0,12.4,42.578V35.8a16.72,16.72,0,1,1,20.179,0v6.774A22.484,22.484,0,0,0,22.486,0Z" transform="translate(0 0)"/>
    <path id="Path_14" data-name="Path 14" class="cls-1" d="M60.207,100A7.21,7.21,0,0,0,53,107.207v7.755a23.543,23.543,0,0,0,2.883.778h0a.635.635,0,0,0,.231.029c.231.029.432.086.663.115.115.029.231.029.317.058.231.029.461.058.721.086.115,0,.2.029.317.029.259.029.49.029.75.058a.981.981,0,0,1,.288.029c.346.029.692.029,1.038.029s.692,0,1.038-.029a.98.98,0,0,0,.288-.029c.259-.029.49-.029.75-.058.115,0,.2-.029.317-.029.231-.029.461-.058.721-.086.115-.029.231-.029.317-.058.231-.029.461-.086.663-.115.086,0,.144-.029.231-.029h0a23.546,23.546,0,0,0,2.883-.778v-7.755A7.21,7.21,0,0,0,60.207,100Z" transform="translate(-37.721 -71.172)"/>
  </g>
</svg>
