<svg xmlns="http://www.w3.org/2000/svg" viewBox="408 899 110.831 30">
  <defs>
    <style>
      .cls-1 {
        fill: #292929;
      }
    </style>
  </defs>
  <g id="Socail-Shares" transform="translate(95 90)">
    <g id="Mail-icon" transform="translate(392 812)">
      <path id="Path_11" data-name="Path 11" class="cls-1" d="M16.53,18.443l15.3-15.3V1.366c0-.82-.82-1.366-1.776-1.366H1.776A1.684,1.684,0,0,0,0,1.366V3.142l15.3,15.3a1.025,1.025,0,0,0,1.23,0"/>
      <path id="Path_12" data-name="Path 12" class="cls-1" d="M17.486,18.944a2.194,2.194,0,0,1-1.5.683,2.194,2.194,0,0,1-1.5-.683L0,4.6V21.95c0,.82.82,1.366,1.776,1.366H30.055a1.684,1.684,0,0,0,1.776-1.366V4.6Z" transform="translate(0 1.684)"/>
    </g>
    <path id="Twitter-icon" class="cls-1" d="M26.8,9.706a9.675,9.675,0,0,0,2.206-.588,12.7,12.7,0,0,1-1.912,2.059v.441A11.139,11.139,0,0,1,15.918,22.794a10.733,10.733,0,0,1-6.029-1.765h.882a7.712,7.712,0,0,0,4.853-1.618,3.794,3.794,0,0,1-3.676-2.794h.735a2.5,2.5,0,0,0,1.029-.147,3.661,3.661,0,0,1-3.088-3.676h0a5.14,5.14,0,0,0,1.765.441,3.766,3.766,0,0,1-1.765-3.382,2.712,2.712,0,0,1,.588-1.912A11.179,11.179,0,0,0,19.3,12.059c0-.294-.147-.588-.147-.882a3.954,3.954,0,0,1,3.971-3.971,4.106,4.106,0,0,1,2.941,1.176,5.338,5.338,0,0,0,2.5-1.029A5.849,5.849,0,0,1,26.8,9.706m7.5,18.676V1.618A1.632,1.632,0,0,0,32.682,0H5.918A1.632,1.632,0,0,0,4.3,1.618V28.382A1.632,1.632,0,0,0,5.918,30H32.682A1.632,1.632,0,0,0,34.3,28.382" transform="translate(348.7 809)"/>
    <path id="Facebook-icon" class="cls-1" d="M28.244,0H1.61A1.624,1.624,0,0,0,0,1.61V28.242a1.624,1.624,0,0,0,1.61,1.61H15.951V18.292H12V13.755h3.951V10.536c0-3.8,2.341-6,5.854-6,1.61,0,3.073.146,3.512.146v4.1H22.976c-1.9,0-2.2.878-2.2,2.195V13.9h4.537l-.585,4.536H20.78V30h7.61A1.624,1.624,0,0,0,30,28.389V1.61A1.871,1.871,0,0,0,28.244,0" transform="translate(313 809)"/>
  </g>
</svg>
