<svg width="30" height="30" viewBox="0 0 30 30" version="1.1" xmlns="http://www.w3.org/2000/svg" xmlns:xlink="http://www.w3.org/1999/xlink">
<title>Twitter</title>
<desc>Created using Figma</desc>
<g id="Canvas" transform="translate(196 234)">
<clipPath id="clip-0" clip-rule="evenodd">
<path d="M -196 -234L -166 -234L -166 -204L -196 -204L -196 -234Z" fill="#FFFFFF"/>
</clipPath>
<g id="Twitter" clip-path="url(#clip-0)">
<path d="M -196 -234L -166 -234L -166 -204L -196 -204L -196 -234Z" fill="#FFFFFF"/>
<g id="Twitter icon">
<use xlink:href="#path0_fill" transform="translate(-196 -234)" fill="#292929"/>
</g>
</g>
</g>
<defs>
<path id="path0_fill" d="M 22.5 9.706C 23.256 9.59775 23.9965 9.40038 24.706 9.118C 24.1468 9.87294 23.5055 10.5635 22.794 11.177L 22.794 11.618C 22.7989 13.087 22.5131 14.5425 21.9532 15.9006C 21.3933 17.2588 20.5703 18.4928 19.5315 19.5315C 18.4928 20.5703 17.2588 21.3933 15.9006 21.9532C 14.5425 22.5131 13.087 22.7989 11.618 22.794C 9.47728 22.8201 7.37766 22.2055 5.589 21.029L 6.471 21.029C 8.22564 21.0575 9.93754 20.4868 11.324 19.411C 10.4892 19.4146 9.67662 19.1427 9.01204 18.6376C 8.34746 18.1325 7.86801 17.4222 7.648 16.617L 8.383 16.617C 8.73251 16.6406 9.08309 16.5906 9.412 16.47C 8.54079 16.3321 7.74867 15.8842 7.18132 15.2088C 6.61397 14.5335 6.30953 13.6759 6.324 12.794L 6.324 12.794C 6.88143 13.0448 7.47912 13.1941 8.089 13.235C 7.52031 12.8795 7.05688 12.3786 6.74659 11.784C 6.4363 11.1895 6.29041 10.5228 6.324 9.853C 6.2692 9.16402 6.47952 8.48012 6.912 7.941C 7.89726 9.15478 9.12614 10.1484 10.5193 10.8577C 11.9124 11.5671 13.4389 11.9763 15 12.059C 15 11.765 14.853 11.471 14.853 11.177C 14.8508 10.6549 14.9519 10.1375 15.1507 9.65471C 15.3495 9.17191 15.6419 8.73325 16.0111 8.36406C 16.3803 7.99487 16.8189 7.70246 17.3017 7.50369C 17.7845 7.30493 18.3019 7.20375 18.824 7.206C 19.3677 7.19753 19.9076 7.29712 20.4125 7.499C 20.9173 7.70087 21.3771 8.00102 21.765 8.382C 22.6728 8.2592 23.5338 7.90484 24.265 7.353C 23.8867 8.27488 23.2792 9.08482 22.5 9.706L 22.5 9.706ZM 30 28.382L 30 1.618C 29.9963 1.19001 29.8247 0.780587 29.5221 0.477942C 29.2194 0.175297 28.81 0.00365599 28.382 0L 1.618 1.38778e-16C 1.19001 0.00365599 0.780587 0.175297 0.477942 0.477942C 0.175297 0.780587 0.00365618 1.19001 1.90735e-07 1.618L 1.90735e-07 28.382C 0.00365618 28.81 0.175297 29.2194 0.477942 29.5221C 0.780587 29.8247 1.19001 29.9963 1.618 30L 28.382 30C 28.81 29.9963 29.2194 29.8247 29.5221 29.5221C 29.8247 29.2194 29.9963 28.81 30 28.382"/>
</defs>
</svg>
