<?xml version="1.0" encoding="utf-8"?>
<!-- Generator: Adobe Illustrator 21.1.0, SVG Export Plug-In . SVG Version: 6.00 Build 0)  -->
<svg version="1.1" id="Layer_1" xmlns="http://www.w3.org/2000/svg" xmlns:xlink="http://www.w3.org/1999/xlink" x="0px" y="0px"
	 viewBox="0 0 17.4 15" style="enable-background:new 0 0 17.4 15;" xml:space="preserve">
<style type="text/css">
	.st0{fill:#FFFFFF;}
	.st1{opacity:0.1;}
	.st2{fill:#292929;}
</style>
<g id="Volume" transform="translate(1436 313)">
	<g transform="matrix(1, 0, 0, 1, -1436, -313)">
		<circle id="Ellipse_3-2" class="st0" cx="-183" cy="8" r="7"/>
	</g>
	<g id="Sound-Loud" transform="translate(1307 333.941)" class="st1">
		<path id="Path_14" class="st2" d="M-2734.5-646.9c-0.2-0.1-0.5,0-0.7,0.1l-3.6,3.6h-3.5c-0.4,0-0.7,0.3-0.7,0.7v6
			c0,0.4,0.3,0.7,0.7,0.7h3.5l3.6,3.6c0.1,0.1,0.3,0.2,0.5,0.2c0.1,0,0.2,0,0.3-0.1c0.2-0.1,0.4-0.3,0.4-0.6v-13.7
			C-2734.1-646.6-2734.3-646.8-2734.5-646.9z"/>
		<g id="SOUND" transform="translate(10.073 0.114)">
			<path id="Path_15" class="st2" d="M-2738.1-639.6c0-2.5-1.9-4.7-4.4-5l-0.3,0c-0.1,0-0.2,0.1-0.2,0.2c0,0,0,0,0,0v0.9
				c0,0.1,0.1,0.2,0.2,0.2l0.2,0c2,0.3,3.5,2.2,3.2,4.2c-0.2,1.7-1.5,3-3.2,3.2l-0.2,0c-0.1,0-0.2,0.1-0.2,0.2v0.9
				c0,0.1,0.1,0.2,0.2,0.2c0,0,0,0,0,0l0.3,0C-2739.9-634.9-2738.1-637-2738.1-639.6z"/>
			<path id="Path_16" class="st2" d="M-2742.4-636.8c1.5-0.4,2.4-2,2-3.5c-0.3-1-1-1.7-2-2l-0.6-0.2l0,0v1.2c0,0.1,0.1,0.2,0.1,0.2
				l0.5,0.2c0,0,0.1,0,0.1,0c0.7,0.5,0.8,1.5,0.3,2.2c-0.2,0.3-0.5,0.5-0.8,0.6l-0.1,0c-0.1,0-0.1,0.1-0.1,0.2v1.2l0,0
				L-2742.4-636.8z"/>
			<path id="Path_17" class="st2" d="M-2737.7-644.6c-1.2-1.4-3-2.2-4.8-2.4l-0.3,0c-0.1,0-0.2,0.1-0.2,0.2c0,0,0,0,0,0v0.9
				c0,0.1,0.1,0.2,0.2,0.2l0.2,0c3.4,0.3,5.8,3.2,5.5,6.6c-0.3,3-2.6,5.3-5.5,5.5l-0.2,0c-0.1,0-0.2,0.1-0.2,0.2v0.9
				c0,0.1,0.1,0.2,0.2,0.2c0,0,0,0,0,0l0.3,0c3.8-0.3,6.8-3.5,6.8-7.4C-2735.7-641.4-2736.4-643.2-2737.7-644.6z"/>
		</g>
	</g>
</g>
</svg>
